<?xml version="1.0" encoding="utf-8"?>
<!-- Generator: Adobe Illustrator 15.1.0, SVG Export Plug-In . SVG Version: 6.00 Build 0)  -->
<!DOCTYPE svg PUBLIC "-//W3C//DTD SVG 1.1//EN" "http://www.w3.org/Graphics/SVG/1.1/DTD/svg11.dtd">
<svg version="1.1" id="Layer_1" xmlns="http://www.w3.org/2000/svg" xmlns:xlink="http://www.w3.org/1999/xlink" x="0px" y="0px"
	 width="63.198px" height="45.887px" viewBox="0 0 63.198 45.887" enable-background="new 0 0 63.198 45.887" xml:space="preserve">
<g>
	<path fill="#FFFFFF" d="M62.846,20.788c-0.741-2.872-2.494-4.355-5.056-4.383c-0.165-0.002-0.332,0.002-0.503,0.012
		c0.004,0-0.01-0.001-0.031-0.002c-0.062-0.001-0.195,0.006-0.373,0.062c-0.157,0.05-0.203,0.075-0.223,0.094
		c-0.077,0.027-0.123,0.095-0.123,0.167c0,0.118,0.11,0.236,0.318,0.239c0.086-0.007,0.158-0.008,0.235-0.008
		c0.003,0,0.007,0,0.007,0c0.057,0,0.153,0.006,0.238,0.008c0.029,0,0.057,0,0.082,0c2.535,0.42,3.422,1.285,4.268,4.145
		c0.205,0.698,0.302,1.391,0.294,2.059c-0.03,2.563-1.579,4.768-4.271,5.639L10.792,44.004c-0.646,0.209-1.292,0.304-1.922,0.297
		c-2.672-0.031-5.064-1.893-6.056-4.569c-0.312-0.844-0.446-1.683-0.437-2.505c0.041-3.56,2.789-6.773,5.459-8.279
		c0.161-0.105,0.262-0.193,0.4-0.277c0.106-0.08,0.152-0.172,0.154-0.254c0-0.107-0.079-0.194-0.183-0.195
		c-0.022,0-0.044,0.004-0.067,0.01l-0.514,0.174C4.581,29.391,0.061,32.629,0,37.594c-0.011,0.992,0.156,2.053,0.549,3.178
		c1.025,2.938,3.831,5.08,6.826,5.115c0.668,0.007,1.344-0.09,2.012-0.306l50.14-16.228c2.55-1.07,3.642-3.309,3.67-5.822
		C63.208,22.64,63.084,21.711,62.846,20.788"/>
	<polygon fill="#FFFFFF" points="25.97,8.738 25.674,8.957 25.584,8.842 26.299,8.318 26.389,8.433 26.092,8.648 26.754,9.486 
		26.632,9.576 	"/>
	<path fill="#FFFFFF" d="M27.243,8.511l0.304,0.449l-0.132,0.076l-0.674-1l0.342-0.194c0.158-0.09,0.359-0.129,0.494,0.069
		c0.08,0.121,0.074,0.251-0.018,0.342l0.002,0.003c0.134-0.036,0.191,0.019,0.282,0.122c0.081,0.091,0.163,0.19,0.26,0.264
		l-0.142,0.08c-0.051-0.052-0.11-0.107-0.156-0.163c-0.071-0.083-0.127-0.164-0.203-0.189c-0.068-0.024-0.119,0.01-0.175,0.036
		L27.243,8.511 M27.161,8.394l0.217-0.125c0.143-0.09,0.129-0.177,0.076-0.256c-0.055-0.08-0.134-0.131-0.285-0.055l-0.218,0.124
		L27.161,8.394z"/>
	<path fill="#FFFFFF" d="M28.443,8.466L28.29,7.252l0.152-0.062l0.987,0.859l-0.153,0.063l-0.26-0.22l-0.47,0.197l0.04,0.314
		L28.443,8.466z M28.526,7.948l0.377-0.158L28.44,7.367L28.526,7.948z"/>
	<path fill="#FFFFFF" d="M29.36,6.856l0.357-0.099c0.1-0.023,0.209-0.045,0.32-0.014c0.199,0.056,0.345,0.201,0.434,0.399
		c0.091,0.198,0.094,0.38-0.019,0.52c-0.062,0.078-0.163,0.115-0.26,0.146l-0.354,0.103L29.36,6.856 M29.929,7.744l0.216-0.062
		c0.148-0.042,0.203-0.125,0.217-0.195c0.023-0.107-0.002-0.205-0.045-0.302C30.273,7.088,30.213,7,30.108,6.927
		c-0.068-0.049-0.175-0.087-0.325-0.045l-0.217,0.059L29.929,7.744z"/>
	<polygon fill="#FFFFFF" points="31.168,7.562 30.792,6.505 31.487,6.396 31.532,6.521 30.989,6.606 31.107,6.937 31.622,6.852 
		31.667,6.976 31.151,7.062 31.276,7.41 31.829,7.315 31.873,7.438 	"/>
	<polygon fill="#FFFFFF" points="34.02,6.382 34.017,6.382 33.836,7.293 33.688,7.295 33.137,6.375 33.133,6.375 33.319,7.3 
		33.162,7.303 32.954,6.271 33.239,6.272 33.738,7.116 33.741,7.116 33.894,6.279 34.159,6.283 34.362,7.29 34.205,7.291 	"/>
	<path fill="#FFFFFF" d="M34.827,7.312l0.402-0.932l0.17,0.021l0.547,1.016l-0.174-0.017l-0.145-0.263l-0.533-0.054l-0.104,0.244
		L34.827,7.312z M35.137,6.972l0.429,0.044l-0.248-0.493L35.137,6.972z"/>
	<path fill="#FFFFFF" d="M36.561,7.09l-0.01,0.42l-0.158-0.028l0.02-0.934l0.41,0.081c0.192,0.039,0.39,0.126,0.385,0.308
		c-0.002,0.109-0.086,0.178-0.22,0.179V7.12c0.138,0.052,0.155,0.114,0.171,0.22c0.016,0.094,0.025,0.194,0.064,0.288l-0.17-0.03
		c-0.012-0.057-0.031-0.12-0.037-0.176c-0.011-0.084-0.01-0.16-0.061-0.216c-0.045-0.05-0.109-0.058-0.172-0.073L36.561,7.09
		 M36.56,6.979l0.263,0.049C36.999,7.056,37.04,7,37.042,6.927c0.002-0.073-0.037-0.144-0.213-0.185L36.567,6.69L36.56,6.979z"/>
	<polygon fill="#FFFFFF" points="37.754,7.741 37.874,6.867 38.031,6.91 37.979,7.287 38.503,7.039 38.718,7.098 38.158,7.346 
		38.656,7.963 38.434,7.909 37.975,7.318 37.911,7.78 	"/>
	<path fill="#FFF12D" d="M54.28,17.039C51.293,5.873,43.519-0.856,30.688,0.531C16.426,2.074,10.254,13.85,11.341,27.136
		l6.347-1.323C16.227,15.549,22.131,6.492,31.577,5.337c10.21-1.249,16.916,4.476,18.728,12.788L54.28,17.039"/>
	<path fill="#FFFFFF" d="M11.077,24.92c0.125-12.21,5.545-22.85,19.297-24.692c1.238-0.167,2.443-0.241,3.613-0.227
		c10.566,0.121,18.242,7.353,20.521,16.984l-0.457,0.108C51.803,7.637,44.323,0.595,33.983,0.471
		c-1.148-0.014-2.33,0.059-3.546,0.223C16.949,2.52,11.704,12.826,11.545,24.926c-0.008,0.728,0.002,1.461,0.029,2.201l-0.468,0.018
		C11.079,26.398,11.069,25.656,11.077,24.92"/>
	<path fill="#FFFFFF" d="M17.309,22.842c0.099-9.157,5.416-16.542,14.456-17.72c0.919-0.12,1.827-0.174,2.72-0.163
		c7.748,0.084,14.293,5.035,16.049,13.117l-0.459,0.1C48.355,10.3,42.031,5.521,34.479,5.428c-0.87-0.011-1.756,0.042-2.652,0.159
		c-8.792,1.157-13.934,8.272-14.048,17.26c-0.011,0.96,0.036,1.942,0.143,2.94l-0.467,0.051
		C17.346,24.821,17.298,23.821,17.309,22.842"/>
	<path fill="#FFFFFF" d="M37.422,13.129l2.668,4.769l-3.452,0.794L37.422,13.129 M41.125,19.949l0.577,1.125
		c0,0,0.25,0.464,0.25,0.848c-0.003,0.64-0.383,1.106-0.383,1.106l5.853-1.435c0,0-0.896-0.573-1.125-0.716
		c-0.275-0.172-0.732-0.742-0.732-0.742l-5.828-8.702c0,0-0.484-0.666-0.484-1.032c0.001-0.572,0.49-0.894,0.49-0.894l-5.521,1.019
		c0,0,0.379,0.106,0.625,0.708c0.156,0.381,0.047,1.063,0.047,1.063l-0.509,3.967l3.06,4.57L41.125,19.949z"/>
	<path fill="#FFFFFF" d="M29.292,14.728l2.785,4.977l-3.605,0.871L29.292,14.728 M26.657,13.913
		c-0.504,2.868-2.217,11.556-2.217,11.556s-0.129,0.561-0.383,1.14c-0.257,0.588-0.799,1.36-0.799,1.36l5.635-1.596
		c0,0-0.699-0.295-0.902-0.856c-0.086-0.237-0.102-0.497-0.033-1.007c0.016-0.114,0.186-1.389,0.186-1.389l5.119-1.318
		c0,0,0.592,1.09,0.641,1.164c0.056,0.082,0.18,0.553,0.061,1.017c-0.176,0.685-0.5,1.154-0.5,1.154l6.318-1.62
		c0,0-0.936-0.588-1.157-0.763c-0.398-0.314-0.765-0.773-0.765-0.773c-0.037-0.048-6.109-9.102-6.109-9.102
		s-0.441-0.656-0.398-1.029c0.077-0.682,0.543-0.984,0.543-0.984l-5.95,1.176c0,0,0.411,0.083,0.648,0.72
		C26.778,13.258,26.657,13.913,26.657,13.913"/>
	<path fill="#FFFFFF" d="M43.5,10.731c-1.693-1.529-3.165-2.103-3.287-2.148l-0.006-0.002l0.467-1.313
		c0.059,0.022,1.673,0.603,3.58,2.27c1.908,1.664,4.102,4.427,5.275,8.747l-1.346,0.366C47.12,14.737,45.196,12.262,43.5,10.731"/>
	<path fill="#FFFFFF" d="M23.969,9.728L23.969,9.728c-0.076,0.074-5.268,4.738-5.376,12.966c-0.011,0.942,0.047,1.93,0.187,2.96
		l1.688-0.335c-0.119-0.908-0.168-1.777-0.159-2.605c0.044-3.74,1.256-6.672,2.458-8.68c0.602-1.003,1.199-1.771,1.643-2.283
		c0.222-0.256,0.403-0.448,0.528-0.574c0.062-0.063,0.11-0.109,0.141-0.138c0.03-0.03,0.038-0.036,0.038-0.036L23.969,9.728"/>
	<path fill="#FFFFFF" d="M6.44,36.641c-0.391,0.109-0.816-0.086-0.953-0.434c-0.135-0.351,0.072-0.723,0.464-0.833l10.753-3.075
		c0.511-0.143,1.068,0.111,1.245,0.568s-0.093,0.943-0.604,1.088L6.44,36.641"/>
	<path fill="#FFFFFF" d="M10.374,38.708c-0.396,0.118-0.824-0.085-0.958-0.455c-0.134-0.371,0.076-0.767,0.472-0.886l7.612-2.458
		c0.517-0.156,1.077,0.109,1.253,0.594c0.175,0.485-0.102,1.003-0.617,1.159L10.374,38.708"/>
	<path fill="#FFFFFF" d="M14.418,40.411c-0.386,0.124-0.803-0.081-0.932-0.459c-0.128-0.376,0.08-0.781,0.465-0.905l4.081-1.565
		c0.504-0.161,1.049,0.107,1.218,0.601c0.168,0.493-0.104,1.022-0.607,1.185L14.418,40.411"/>
	<path fill="#FFFFFF" d="M59.555,21.37c0.238-0.069,0.371-0.313,0.297-0.543c-0.073-0.231-0.326-0.362-0.564-0.292l-6.622,1.79
		c-0.312,0.09-0.485,0.409-0.39,0.71c0.098,0.303,0.427,0.475,0.737,0.384L59.555,21.37"/>
	<path fill="#FFFFFF" d="M58.288,24.096c0.25-0.073,0.399-0.346,0.335-0.607c-0.065-0.261-0.321-0.414-0.569-0.341l-5.012,1.324
		c-0.327,0.096-0.522,0.45-0.438,0.792s0.418,0.543,0.744,0.447L58.288,24.096"/>
	<path fill="#FFFFFF" d="M56.645,26.902c0.252-0.073,0.396-0.336,0.323-0.587c-0.074-0.252-0.337-0.396-0.588-0.322l-2.96,0.713
		c-0.328,0.096-0.518,0.438-0.421,0.767c0.096,0.328,0.44,0.518,0.77,0.421L56.645,26.902"/>
	<path fill="#FFFFFF" d="M35.712,33.756c-0.349-0.144-0.497-0.186-0.692-0.3c-0.572-0.347-1.062-1.301-1.551-1.837
		c-0.078-0.077-0.488-0.535-1.043-0.571c-0.009-0.001-0.018-0.001-0.027-0.003c0.292-0.211,0.551-0.445,0.736-0.805
		c0.168-0.318,0.221-0.625,0.223-0.872c0.003-0.202-0.027-0.363-0.049-0.46c-0.133-0.592-0.492-0.912-0.663-1.043
		c-0.323-0.252-0.659-0.35-1.019-0.353c-0.216-0.003-0.439,0.026-0.681,0.073c-0.21,0.031-0.424,0.086-0.636,0.131l-2.62,0.812
		c-0.192,0.074-0.259,0.093-0.376,0.092c-0.041,0-0.089-0.004-0.147-0.009c-0.048-0.005-0.094,0.026-0.107,0.073
		c-0.015,0.045,0.007,0.096,0.05,0.118c0.405,0.216,0.58,0.335,0.748,0.737c0.064,0.146,0.092,0.262,0.176,0.587L29,34.417
		c0.044,0.221,0.086,0.436,0.084,0.643c-0.002,0.176-0.035,0.344-0.123,0.514c-0.07,0.128-0.191,0.262-0.219,0.291
		c-0.03,0.034-0.034,0.085-0.009,0.123c0.019,0.029,0.051,0.047,0.085,0.047c0.01,0,0.02-0.001,0.031-0.004
		c0.522-0.162,1.061-0.318,1.596-0.484c0.666-0.206,0.545-0.214,0.986-0.223c0.045-0.002,0.084-0.031,0.098-0.075
		c0.012-0.044-0.008-0.091-0.047-0.114c-0.603-0.383-0.647-0.471-0.833-1.2l-0.364-1.612c0.307-0.101,0.559-0.172,0.805-0.168
		c0.152,0.002,0.305,0.029,0.475,0.099c0.099,0.044,0.28,0.118,0.479,0.293c0.059,0.058,0.134,0.124,0.254,0.267
		c0.174,0.205,0.629,0.859,0.74,1.078c0.078,0.15,0.098,0.205,0.114,0.275c0.015,0.069,0.021,0.12,0.021,0.17
		c-0.001,0.061-0.012,0.125-0.026,0.218c-0.006,0.035,0.007,0.071,0.032,0.093c0.026,0.023,0.062,0.033,0.096,0.023
		c0.342-0.096,0.688-0.213,1.031-0.32c0.178-0.045,0.349-0.098,0.525-0.152c0.639-0.198,0.863-0.244,0.863-0.245
		c0.043-0.009,0.077-0.046,0.082-0.091C35.779,33.817,35.754,33.774,35.712,33.756 M31.51,30.297
		c-0.228,0.388-0.649,0.566-1.096,0.725c-0.139,0.051-0.27,0.101-0.399,0.149l-0.445-1.976c0.561-0.182,0.899-0.275,1.173-0.271
		c0.075,0.001,0.146,0.009,0.217,0.023c0.348,0.063,0.548,0.281,0.635,0.65c0.012,0.055,0.031,0.147,0.029,0.263
		C31.622,29.989,31.596,30.141,31.51,30.297 M37.565,31.903l-0.966-4.293c-0.033-0.192-0.065-0.402-0.063-0.604
		c0.002-0.18,0.032-0.351,0.112-0.502c0.053-0.102,0.156-0.211,0.185-0.252c0.02-0.035,0.018-0.078-0.008-0.109
		c-0.025-0.033-0.066-0.045-0.105-0.033c-0.447,0.14-0.899,0.27-1.358,0.422l-0.387,0.121c-0.087,0.027-0.165,0.062-0.237,0.084
		c-0.18,0.056-0.244,0.051-0.441,0.057c-0.044,0.002-0.081,0.033-0.091,0.076c-0.011,0.042,0.009,0.086,0.048,0.107
		c0.354,0.194,0.541,0.309,0.678,0.641c0.084,0.19,0.131,0.449,0.146,0.512l0.927,4.119c0.051,0.225,0.102,0.471,0.099,0.703
		c-0.003,0.18-0.036,0.35-0.122,0.496c-0.035,0.057-0.079,0.119-0.188,0.245c-0.029,0.032-0.031,0.08-0.008,0.116
		c0.018,0.028,0.049,0.045,0.08,0.045c0.01,0,0.021-0.002,0.03-0.005l2.384-0.741c0.037-0.011,0.062-0.042,0.068-0.08
		c0.006-0.037-0.012-0.074-0.044-0.095C37.786,32.593,37.743,32.514,37.565,31.903 M45.649,30.773
		c-0.4-0.188-0.58-0.272-0.726-0.644c-0.051-0.135-0.077-0.207-0.142-0.492l-0.927-4.107c-0.05-0.215-0.09-0.412-0.087-0.596
		c0.002-0.174,0.039-0.335,0.146-0.504c0.074-0.123,0.221-0.256,0.256-0.293c0.028-0.031,0.031-0.08,0.009-0.115
		c-0.022-0.036-0.067-0.053-0.108-0.041l-2.311,0.717c-0.035,0.012-0.061,0.043-0.065,0.079c-0.005,0.038,0.013,0.073,0.044,0.094
		c0.578,0.364,0.615,0.435,0.777,1.11l0.67,2.973c-0.479-0.488-0.959-0.97-1.445-1.449c-0.713-0.695-1.434-1.389-2.156-2.08
		c-0.024-0.023-0.061-0.033-0.094-0.022l-1.193,0.37c-0.428,0.133-0.404,0.176-0.801,0.181c-0.043,0.001-0.08,0.03-0.092,0.072
		c-0.01,0.043,0.01,0.085,0.047,0.106c0.626,0.352,0.659,0.418,0.856,1.156l0.896,3.972c0.054,0.34,0.081,0.54,0.079,0.706
		c0,0.066-0.006,0.129-0.016,0.195c-0.047,0.327-0.176,0.434-0.29,0.568c-0.028,0.031-0.03,0.078-0.008,0.113
		c0.017,0.027,0.047,0.043,0.079,0.044c0.01,0,0.02-0.001,0.029-0.005l1.741-0.539c0.19-0.066,0.274-0.08,0.353-0.079
		c0.055,0.001,0.112,0.011,0.202,0.021c0.046,0.006,0.089-0.023,0.102-0.066c0.015-0.044-0.005-0.092-0.046-0.113
		c-0.624-0.342-0.666-0.407-0.865-1.111l-0.709-3.143l3.771,3.591c0.025,0.024,0.061,0.032,0.094,0.022l1.438-0.447
		c0.155-0.062,0.204-0.08,0.284-0.078c0.037,0,0.084,0.005,0.15,0.016c0.047,0.007,0.092-0.021,0.105-0.066
		S45.692,30.792,45.649,30.773 M52.437,28.655c-0.903-0.305-1.104-0.414-1.894-1.01l-2.05-1.729l1.286-2.425
		c0.385-0.673,0.504-0.83,1.047-1.381c0.029-0.031,0.035-0.078,0.012-0.115c-0.021-0.037-0.066-0.054-0.107-0.041l-2.243,0.701
		c-0.05,0.015-0.077,0.066-0.063,0.115c0.046,0.16,0.067,0.268,0.066,0.357c-0.002,0.139-0.054,0.26-0.189,0.508l-1.136,2.333
		l-0.288-1.354c-0.037-0.194-0.074-0.399-0.072-0.599c0.002-0.167,0.031-0.33,0.11-0.486c0.036-0.062,0.112-0.17,0.167-0.25
		c0.023-0.033,0.022-0.076-0.002-0.108c-0.023-0.032-0.064-0.046-0.103-0.034l-0.771,0.241c-0.223,0.069-0.459,0.134-0.688,0.206
		c-0.389,0.122-0.432,0.182-0.621,0.178h-0.002h-0.014c-0.02,0.004-0.037,0.004-0.055,0.004c-0.036,0-0.074-0.005-0.12-0.006
		c-0.042-0.001-0.081,0.027-0.093,0.068s0.006,0.084,0.043,0.106c0.229,0.134,0.3,0.185,0.395,0.271
		c0.223,0.203,0.29,0.499,0.379,0.875l0.871,4.089c0.037,0.229,0.081,0.469,0.078,0.699c-0.002,0.17-0.029,0.333-0.096,0.485
		c-0.052,0.126-0.106,0.205-0.135,0.271c-0.016,0.034-0.008,0.072,0.018,0.1c0.018,0.02,0.043,0.031,0.067,0.031
		c0.01,0,0.021-0.002,0.028-0.005l2.141-0.669c0.035-0.012,0.059-0.04,0.065-0.075c0.005-0.034-0.008-0.069-0.037-0.091
		c-0.432-0.328-0.466-0.404-0.614-0.979l-0.424-1.987c0.253,0.24,0.51,0.479,0.769,0.71c0.372,0.329,0.739,0.645,1.101,0.982
		c0.308,0.274,0.607,0.56,0.91,0.847c0.025,0.023,0.061,0.031,0.094,0.02l2.167-0.678c0.039-0.012,0.065-0.047,0.066-0.088
		S52.475,28.668,52.437,28.655 M26.624,30.467c-0.553-0.479-1.326-0.787-2.121-0.797c-0.006,0-0.01,0-0.012,0
		c-0.014,0-0.033,0-0.051,0c-0.367-0.005-0.711,0.055-1.061,0.105l0.016,0.109l-0.023-0.107l-0.64,0.137
		c-0.415,0.1-0.851,0.217-1.271,0.34c-0.679,0.182-1.345,0.37-2.024,0.553c-0.044,0.012-0.076,0.05-0.081,0.096
		c-0.006,0.045,0.018,0.089,0.059,0.11c0.685,0.372,0.714,0.437,0.906,1.125l1.216,4.646c0.046,0.225,0.083,0.401,0.079,0.559
		c-0.002,0.178-0.045,0.334-0.188,0.547c-0.063,0.09-0.133,0.176-0.205,0.275c-0.026,0.038-0.026,0.09,0,0.128
		c0.021,0.03,0.056,0.047,0.09,0.048c0.011,0,0.021-0.001,0.031-0.004l3.812-1.02c0.653-0.219,0.903-0.332,1.207-0.518
		c0.683-0.424,1.009-0.916,1.149-1.163c0.328-0.534,0.461-1.066,0.467-1.599c0.006-0.426-0.068-0.851-0.183-1.284
		C27.465,31.485,27.141,30.919,26.624,30.467 M25.819,35.104c-0.221,0.62-0.727,0.914-1.465,1.147
		c-0.291,0.097-0.588,0.169-0.879,0.23l-1.355-5.126c0.635-0.188,1.218-0.336,1.717-0.329c0.61,0.012,1.085,0.226,1.453,0.903
		c0.105,0.21,0.314,0.658,0.486,1.317c0.1,0.38,0.174,0.761,0.17,1.132C25.943,34.625,25.907,34.866,25.819,35.104"/>
	<path fill="#252F55" d="M16.687,18.138l0.071-0.672l-0.07,0.012l-3.401,0.576l-0.076,0.715l3.269,1.323l0.072-0.672l-0.635-0.256
		l0.098-0.912L16.687,18.138z M15.272,18.89l-0.982-0.371l1.041-0.176L15.272,18.89z"/>
	<polygon fill="#252F55" points="13.95,14.895 13.743,15.629 17.1,16.662 17.668,14.812 16.92,14.583 16.555,15.772 	"/>
	<polygon fill="#252F55" points="15.278,11.743 14.95,12.429 18.066,14.02 18.942,12.303 18.247,11.949 17.684,13.053 	"/>
	<path fill="#252F55" d="M23.622,6.089L23.08,6.391l0.034,0.088c0.028,0.073,0.073,0.167,0.084,0.268
		c0.01,0.093-0.002,0.181-0.08,0.278c-0.033,0.042-0.072,0.073-0.105,0.089c-0.033,0.017-0.057,0.025-0.085,0.028
		c-0.013,0.001-0.026,0.001-0.04,0.001c-0.091-0.006-0.218-0.061-0.377-0.209c-0.127-0.122-0.25-0.311-0.348-0.498
		c-0.094-0.186-0.165-0.373-0.189-0.469c-0.011-0.042-0.018-0.083-0.022-0.123c-0.021-0.188,0.026-0.333,0.112-0.391
		c0.062-0.043,0.115-0.062,0.165-0.068c0.173-0.028,0.358,0.162,0.421,0.263l0.055,0.084l0.549-0.305l-0.055-0.095
		c-0.081-0.138-0.301-0.507-0.76-0.631c-0.131-0.039-0.25-0.046-0.355-0.035c-0.145,0.017-0.258,0.069-0.34,0.116
		C21.343,5,21.231,5.395,21.282,5.797c0.016,0.146,0.051,0.296,0.099,0.448c0.057,0.178,0.147,0.372,0.25,0.556
		c0.102,0.181,0.212,0.344,0.307,0.462c0.334,0.409,0.732,0.658,1.13,0.616l0.003,0c0.112-0.013,0.222-0.05,0.323-0.113
		c0.253-0.16,0.403-0.419,0.451-0.634c0.023-0.108,0.025-0.23,0.012-0.358c-0.023-0.198-0.084-0.409-0.183-0.589L23.622,6.089z"/>
	<polygon fill="#252F55" points="25.833,3.559 25.531,2.897 25.432,2.943 23.647,3.756 23.948,4.417 24.586,4.126 25.606,6.365 
		26.237,6.078 25.217,3.839 	"/>
	<polygon fill="#252F55" points="27.434,2.278 26.776,2.485 27.723,5.499 28.383,5.292 28.35,5.186 	"/>
	<polygon fill="#252F55" points="29.936,1.652 29.937,3.488 29.143,1.833 28.461,1.988 29.952,4.84 30.506,4.715 30.619,1.498 
		30.478,1.53 	"/>
	<polygon fill="#252F55" points="31.811,4.47 32.485,4.409 32.475,4.297 32.208,1.369 31.534,1.43 	"/>
	<polygon fill="#252F55" points="33.211,1.251 33.184,1.955 33.842,1.981 33.75,4.286 34.422,4.313 34.515,2.007 35.148,2.033 
		35.176,1.329 35.063,1.326 	"/>
	<polygon fill="#252F55" points="37.077,1.578 36.643,2.455 36.42,1.496 35.708,1.407 36.215,3.29 36.082,4.354 36.725,4.435 
		36.859,3.37 37.791,1.667 37.627,1.647 	"/>
	<path fill="#252F55" d="M41.811,2.851l-0.996-0.361l-0.039,0.106l-0.928,2.562l0.969,0.352c0.085,0.031,0.177,0.038,0.27,0.025
		c0.189-0.024,0.382-0.124,0.55-0.283c0.169-0.158,0.372-0.443,0.532-0.886c0.097-0.267,0.125-0.484,0.122-0.618
		c-0.002-0.073-0.007-0.142-0.015-0.207C42.229,3.14,42.022,2.924,41.811,2.851 M41.629,3.704c0.017,0.115-0.021,0.317-0.092,0.506
		c-0.067,0.193-0.166,0.38-0.238,0.462c-0.099,0.117-0.18,0.159-0.254,0.169c-0.047,0.006-0.096,0-0.152-0.021l-0.209-0.075
		l0.508-1.401l0.248,0.09c0.119,0.054,0.15,0.061,0.188,0.259C41.629,3.698,41.63,3.703,41.629,3.704"/>
	<path fill="#252F55" d="M44.963,4.557l-0.895-0.579L44.01,4.071l-1.387,2.148l0.479,0.31l0.524-0.813l0.255,0.165
		c0.033,0.024,0.041,0.04,0.044,0.067c0.001,0.022-0.007,0.056-0.035,0.104c-0.099,0.144-0.204,0.308-0.269,0.417
		c-0.045,0.079-0.077,0.16-0.098,0.25l-0.016,0.073l0.473,0.306l0.108-0.168l0.028-0.043l-0.016-0.049
		c-0.004-0.011-0.004-0.014-0.004-0.017c-0.001-0.001-0.002-0.022,0.045-0.095c0.068-0.109,0.236-0.378,0.289-0.478
		c0.057-0.105,0.074-0.201,0.07-0.28c0-0.026-0.004-0.049-0.008-0.07c0.114-0.027,0.229-0.084,0.348-0.21
		c0.166-0.171,0.238-0.356,0.277-0.461c0.039-0.094,0.057-0.188,0.053-0.275C45.166,4.778,45.079,4.64,44.963,4.557 M44.506,5.219
		c-0.07,0.13-0.156,0.16-0.201,0.163c-0.008,0-0.013,0-0.016-0.001c-0.002-0.001-0.003-0.001-0.003-0.001s-0.001,0-0.003,0.002
		L43.973,5.18l0.229-0.355l0.309,0.198c0.046,0.033,0.046,0.045,0.049,0.064C44.561,5.108,44.547,5.155,44.506,5.219"/>
	<polygon fill="#252F55" points="46.784,6.003 45.077,7.913 45.518,8.307 45.59,8.227 47.226,6.398 	"/>
	<polygon fill="#252F55" points="49.039,8.332 48.167,9.108 48.683,7.93 48.327,7.53 46.471,9.179 46.856,9.612 47.743,8.825 
		47.211,10.014 47.569,10.415 49.424,8.765 	"/>
	<polygon fill="#252F55" points="50.966,10.987 50.084,10.96 50.691,10.565 50.381,10.09 50.291,10.149 48.366,11.401 
		48.676,11.877 49.323,11.455 49.43,11.459 48.981,12.345 49.349,12.913 50.036,11.505 51.338,11.56 	"/>
	<polygon fill="#252F55" points="16.25,23.067 15.143,23.665 15.375,24.909 14.461,24.051 13.365,24.635 13.905,23.524 
		12.983,22.647 14.24,22.793 14.78,21.679 15.002,22.9 	"/>
	<polygon fill="#252F55" points="52.333,14.297 51.986,14.998 52.549,15.546 51.778,15.439 51.429,16.129 51.305,15.37 
		50.522,15.257 51.213,14.879 51.088,14.119 51.639,14.66 	"/>
	<path fill="#252F55" d="M18.995,6.821L18.467,7.35l1.773,3.186l0.498-0.498L20.395,9.42l0.666-0.667l0.613,0.345L22.173,8.6
		L18.995,6.821z M20.051,8.778l-0.543-0.923l0.938,0.526L20.051,8.778z"/>
</g>
</svg>
